<?xml version="1.0" encoding="utf-8" standalone="no"?>
<!DOCTYPE svg PUBLIC "-//W3C//DTD SVG 1.1//EN"
  "http://www.w3.org/Graphics/SVG/1.1/DTD/svg11.dtd">
<svg xmlns:xlink="http://www.w3.org/1999/xlink" width="245.55625pt" height="203.4504pt" viewBox="0 0 245.55625 203.4504" xmlns="http://www.w3.org/2000/svg" version="1.1">
 <metadata>
  <rdf:RDF xmlns:dc="http://purl.org/dc/elements/1.1/" xmlns:cc="http://creativecommons.org/ns#" xmlns:rdf="http://www.w3.org/1999/02/22-rdf-syntax-ns#">
   <cc:Work>
    <dc:type rdf:resource="http://purl.org/dc/dcmitype/StillImage"/>
    <dc:date>2024-06-10T10:36:41.594656</dc:date>
    <dc:format>image/svg+xml</dc:format>
    <dc:creator>
     <cc:Agent>
      <dc:title>Matplotlib v3.6.3, https://matplotlib.org/</dc:title>
     </cc:Agent>
    </dc:creator>
   </cc:Work>
  </rdf:RDF>
 </metadata>
 <defs>
  <style type="text/css">*{stroke-linejoin: round; stroke-linecap: butt}</style>
 </defs>
 <g id="figure_1">
  <g id="patch_1">
   <path d="M 0 203.4504 
L 245.55625 203.4504 
L 245.55625 0 
L 0 0 
z
" style="fill: #ffffff"/>
  </g>
  <g id="axes_1">
   <g id="text_1">
    <!-- T❤️M -->
    <g style="fill: #333333" transform="translate(7.2 129.31895) scale(1 -1)">
     <defs>
      <path id="DejaVuSans-54" d="M -19 4666 
L 3928 4666 
L 3928 4134 
L 2272 4134 
L 2272 0 
L 1638 0 
L 1638 4134 
L -19 4134 
L -19 4666 
z
" transform="scale(0.015625)"/>
      <path id="DejaVuSans-2764" d="M 2681 534 
Q 2253 1281 950 2038 
Q 344 2391 344 2947 
Q 344 3181 430 3397 
Q 516 3613 688 3781 
Q 853 3944 1069 4038 
Q 1272 4125 1512 4125 
Q 1753 4125 1956 4038 
Q 2169 3947 2338 3781 
Q 2503 3619 2592 3405 
Q 2681 3191 2681 2947 
Q 2681 3191 2770 3405 
Q 2859 3619 3025 3781 
Q 3194 3947 3406 4038 
Q 3609 4125 3850 4125 
Q 4091 4125 4294 4038 
Q 4509 3944 4675 3781 
Q 4847 3613 4933 3397 
Q 5019 3181 5019 2947 
Q 5019 2384 4413 2038 
Q 3109 1281 2681 534 
z
" transform="scale(0.015625)"/>
      <path id="DejaVuSans-fe0f" transform="scale(0.015625)"/>
      <path id="DejaVuSans-4d" d="M 628 4666 
L 1569 4666 
L 2759 1491 
L 3956 4666 
L 4897 4666 
L 4897 0 
L 4281 0 
L 4281 4097 
L 3078 897 
L 2444 897 
L 1241 4097 
L 1241 0 
L 628 0 
L 628 4666 
z
" transform="scale(0.015625)"/>
     </defs>
     <use xlink:href="#DejaVuSans-54"/>
     <use xlink:href="#DejaVuSans-2764" x="61.083984"/>
     <use xlink:href="#DejaVuSans-fe0f" x="144.873047"/>
     <use xlink:href="#DejaVuSans-4d" x="144.873047"/>
    </g>
   </g>
  </g>
 </g>
</svg>
