<svg version="1.1" id="Layer_1" xmlns="http://www.w3.org/2000/svg" xmlns:xlink="http://www.w3.org/1999/xlink" x="0px" y="0px"
	 width="100%" viewBox="0 0 1024 1024" enable-background="new 0 0 1024 1024" xml:space="preserve">
<path fill="#000000" opacity="0.000000" stroke="none"
	d="
M677.000000,1025.000000 
	C451.333344,1025.000000 226.166672,1025.000000 1.000000,1025.000000 
	C1.000000,683.666687 1.000000,342.333344 1.000000,1.000000 
	C342.333344,1.000000 683.666687,1.000000 1025.000000,1.000000 
	C1025.000000,342.333344 1025.000000,683.666687 1025.000000,1025.000000 
	C909.166687,1025.000000 793.333313,1025.000000 677.000000,1025.000000 
M414.548157,633.965027 
	C419.980988,604.670837 428.186066,575.892761 431.432770,545.809448 
	C449.105347,579.656372 466.777924,613.503296 484.889221,648.190430 
	C502.955780,612.083679 520.457642,577.105469 537.959534,542.127258 
	C538.999084,572.258545 539.186890,602.022400 538.833496,631.779846 
	C538.766418,637.427917 536.824036,643.148071 531.132629,646.448181 
	C529.512573,647.387573 528.201355,648.859253 526.081238,650.650574 
	C542.163208,650.650574 557.008118,650.650574 572.638794,650.650574 
	C571.523315,649.391541 571.058044,648.405151 570.312683,648.097412 
	C563.771301,645.397644 561.979492,640.097229 561.985413,633.621521 
	C562.016602,599.455505 562.049072,565.289307 561.950623,531.123535 
	C561.934631,525.557068 563.382202,521.208008 568.906433,518.976990 
	C569.364929,518.791809 569.702637,518.307739 570.816650,517.331177 
	C554.391357,517.331177 538.945801,517.331177 523.353638,517.331177 
	C529.512329,521.746826 530.690674,525.233398 527.601807,531.796936 
	C520.300537,547.311340 512.841736,562.752441 505.343628,578.173096 
	C500.455994,588.224976 495.387787,598.188965 490.155090,608.684448 
	C481.199463,591.690063 472.478241,575.440430 464.045898,559.042358 
	C457.495728,546.304443 451.399933,533.332764 444.838959,520.600708 
	C444.003693,518.979797 441.609589,517.222290 439.878632,517.159607 
	C430.557678,516.822144 421.217804,516.965698 411.885254,517.042175 
	C410.675262,517.052063 409.469940,517.634583 409.456940,517.638000 
	C412.048615,521.144348 416.470917,524.394836 416.643402,527.857117 
	C417.234589,539.724487 417.383881,551.812317 415.749390,563.544006 
	C413.507294,579.637207 409.474335,595.480530 406.221741,611.433472 
	C402.806335,628.185181 399.586090,644.979553 395.907532,661.673096 
	C394.508148,668.023560 393.450256,675.122009 389.857727,680.194702 
	C377.312714,697.908386 360.383972,708.334045 337.754639,705.896912 
	C327.354584,704.776855 313.983612,698.542114 310.923981,685.660278 
	C310.522797,683.971191 309.991364,682.074036 308.882446,680.851990 
	C307.463165,679.287964 305.396942,678.311096 303.609467,677.081177 
	C302.406311,679.073425 300.433350,680.959656 300.141571,683.077515 
	C299.193298,689.960693 302.455261,695.911560 306.537994,700.848938 
	C315.416992,711.586609 327.686035,716.268982 341.232483,716.879028 
	C356.949982,717.586731 371.251465,712.951355 383.568176,702.904419 
	C387.556732,699.650879 391.388031,696.204590 395.546295,692.627014 
	C396.099731,695.730164 396.493896,698.268127 397.010345,700.780884 
	C399.616730,713.461365 404.425201,725.248291 413.365204,734.711670 
	C425.540710,747.599976 440.157593,756.023376 458.045593,759.249268 
	C472.744354,761.899902 486.879578,760.896057 500.982880,756.978760 
	C515.511108,752.943481 527.926758,745.325256 538.282654,734.266052 
	C552.044739,719.569214 560.895813,702.944702 558.859436,682.150818 
	C558.535645,678.844543 556.567627,675.596985 554.877014,672.594116 
	C554.415222,671.773865 551.704468,671.244324 550.897217,671.814697 
	C549.569946,672.752502 547.968140,674.861023 548.189575,676.191772 
	C550.609436,690.736633 546.465332,703.765991 538.709473,715.641846 
	C527.316528,733.087036 511.315186,744.350769 490.841583,748.982971 
	C480.833282,751.247314 470.752686,751.814758 460.657196,749.836731 
	C445.172791,746.802795 432.061279,739.437378 421.921234,727.296570 
	C417.502686,722.006165 413.633453,716.217041 411.883881,708.130005 
	C413.441132,709.278320 414.155945,709.653320 414.675110,710.210510 
	C426.801483,723.225647 441.037292,731.872253 459.169403,734.181824 
	C480.423584,736.889160 499.003754,732.582275 512.806396,715.437805 
	C520.432922,705.964783 523.589417,694.336426 519.605103,682.551819 
	C515.488037,670.374390 506.159058,662.553406 493.188293,661.144897 
	C471.042572,658.740234 448.566589,670.208679 445.355164,696.082031 
	C444.781891,700.700562 447.895264,706.216553 450.474670,710.636292 
	C452.282593,713.734192 456.647858,713.601379 459.550262,711.591309 
	C462.402496,709.616150 460.079803,706.871948 458.910919,704.832275 
	C456.454559,700.546326 456.511200,696.272644 457.766632,691.678894 
	C460.918915,680.144104 469.399841,674.643738 480.169373,672.058899 
	C492.594391,669.076843 502.701843,673.478210 507.063446,683.520935 
	C512.633301,696.345520 507.132965,708.662842 495.089020,716.821838 
	C481.783386,725.835571 467.003967,726.990356 451.494263,722.225403 
	C440.397766,718.816284 431.854950,712.143311 424.335999,703.792175 
	C416.064606,694.605347 411.440155,683.845215 410.997284,671.393738 
	C410.557678,659.034180 411.370117,646.781067 414.548157,633.965027 
M257.006592,514.292725 
	C255.615463,517.359558 254.224335,520.426453 252.355057,524.547424 
	C265.630249,522.141846 277.787506,519.938843 289.944763,517.735901 
	C289.909363,517.268921 289.873932,516.802002 289.838501,516.335083 
	C284.308655,514.609131 281.286377,510.421387 281.139954,505.172119 
	C280.742188,490.910034 281.003357,476.629578 281.003357,462.000000 
	C283.206512,462.000000 285.044769,462.251465 286.790863,461.956818 
	C294.654480,460.629700 299.247009,464.623505 303.068268,470.931152 
	C309.816223,482.069794 316.420044,493.371857 324.137787,503.827820 
	C334.034637,517.235901 351.083313,525.610291 369.209381,515.343933 
	C367.201263,514.217834 365.469177,513.041687 363.581940,512.223389 
	C355.066589,508.531219 348.627716,502.556458 343.973572,494.608124 
	C338.940735,486.013153 334.247742,477.204010 328.878479,468.826721 
	C325.558899,463.647430 321.254669,459.099182 317.477081,454.373535 
	C324.540710,450.581024 330.911621,445.731873 335.393005,438.308899 
	C342.764008,426.099579 343.644318,413.830353 336.098511,401.742706 
	C329.371124,390.966217 319.233276,384.557220 306.381714,384.119110 
	C291.410461,383.608734 276.408447,384.000000 261.419800,384.000000 
	C258.658203,384.000000 255.896637,384.000000 252.809479,384.000000 
	C253.120026,385.337036 253.046646,386.498108 253.509842,386.781189 
	C257.147736,389.004608 258.008148,392.415527 258.006958,396.320862 
	C257.995392,433.792480 258.010986,471.264130 257.961426,508.735687 
	C257.959351,510.300659 257.392517,511.864929 257.006592,514.292725 
M688.655396,568.002380 
	C677.946472,570.771851 667.237610,573.541321 655.146179,576.668335 
	C668.683411,556.681946 676.630005,534.918518 692.194641,517.457031 
	C681.879089,517.457031 671.981934,517.457031 661.548828,517.457031 
	C668.051514,522.880981 668.753357,525.072144 665.005737,532.432678 
	C659.757996,542.739685 654.054749,552.815369 648.511292,562.970825 
	C646.242310,567.127441 643.881714,571.234070 641.152466,576.094299 
	C639.984497,574.248169 639.379639,573.357727 638.840393,572.429077 
	C635.125916,566.031860 631.158997,559.763611 627.778564,553.193909 
	C621.739136,541.456665 612.830872,530.999939 611.526855,517.093140 
	C600.745483,517.093140 590.131836,517.093140 579.498535,517.093140 
	C598.266418,538.546936 608.214172,565.352417 624.086792,588.572083 
	C611.370605,593.490051 598.950989,598.212341 586.609619,603.130981 
	C583.969116,604.183350 581.130066,605.515625 579.308533,607.548767 
	C578.245422,608.735352 578.441467,611.814087 579.190125,613.562256 
	C579.613281,614.550537 582.310181,614.950317 583.969055,614.917053 
	C585.663574,614.883240 587.363953,614.059875 589.022156,613.470764 
	C600.875122,609.259827 612.717896,605.020386 625.000000,600.634216 
	C625.000000,613.201233 624.873840,625.025391 625.055115,636.844788 
	C625.141113,642.451294 621.742554,645.356934 617.651306,648.001953 
	C616.658997,648.643433 615.728333,649.380188 614.016113,650.617554 
	C629.176392,650.617554 643.028259,650.617554 657.563293,650.617554 
	C656.648926,649.432922 656.307983,648.535828 655.691162,648.263550 
	C650.390808,645.923401 648.257141,641.208069 648.135254,636.136536 
	C647.767639,620.838867 648.002625,605.526672 648.002625,590.577209 
	C654.913330,588.631470 661.340637,586.595215 667.880005,585.025696 
	C683.677124,581.234558 699.460205,577.332764 715.377808,574.112854 
	C726.496338,571.863647 737.779541,569.975159 749.077209,569.186646 
	C761.655945,568.308655 774.380005,568.345581 786.666626,572.270020 
	C789.806885,573.273071 791.579529,572.080566 791.985535,568.892517 
	C792.602844,564.045654 789.299988,562.092407 785.529602,561.055786 
	C769.914673,556.762695 753.838806,558.406860 738.185669,559.448059 
	C721.848083,560.534790 705.735779,565.007507 688.655396,568.002380 
M808.988037,470.481171 
	C810.895447,472.724304 812.660706,475.109680 814.736328,477.184509 
	C821.568359,484.014069 822.730835,492.377747 822.084534,501.520813 
	C821.664978,507.454956 819.527893,512.041199 814.449768,515.197876 
	C814.345581,515.262634 814.511108,515.761230 814.677124,517.000000 
	C820.083801,517.000000 825.668091,516.697449 831.202515,517.093201 
	C835.856689,517.425964 837.129517,515.912537 837.106506,511.239380 
	C836.917725,472.910736 837.138184,434.579651 836.832947,396.252533 
	C836.792786,391.210449 838.854614,388.238739 842.140747,385.355255 
	C842.746277,384.823914 843.439392,384.392426 844.223511,383.818726 
	C833.616394,383.818726 823.452026,383.818726 813.287659,383.818726 
	C813.047180,384.213043 812.806702,384.607330 812.566284,385.001648 
	C822.139648,387.638123 822.089417,394.921570 822.030701,402.365540 
	C821.922852,416.029999 822.009033,429.695984 821.984375,443.361237 
	C821.982239,444.560699 821.759399,445.759735 821.639099,446.958984 
	C821.097839,447.332764 820.556641,447.706573 820.015381,448.080353 
	C819.046753,446.558533 818.177856,444.960968 817.090820,443.528992 
	C813.755981,439.135986 810.350586,434.796265 806.949097,430.454254 
	C797.632996,418.562408 788.190125,406.767487 779.025452,394.760162 
	C773.737000,387.831360 768.226379,382.354553 758.307434,383.844604 
	C752.603333,384.701477 746.664978,383.974945 740.832703,384.025177 
	C739.872742,384.033447 738.915710,384.372681 737.957336,384.558960 
	C745.172668,387.751495 746.123047,393.396057 746.079407,400.099304 
	C745.893005,428.761932 746.047058,457.426697 745.916382,486.089966 
	C745.905151,488.549927 745.067383,491.175018 743.983154,493.418701 
	C742.612427,496.255188 740.594849,498.779083 738.449585,502.059875 
	C748.383606,502.815491 757.630981,503.518860 766.878357,504.222229 
	C766.987915,503.767883 767.097534,503.313538 767.207153,502.859222 
	C761.453552,499.678711 759.905273,494.552094 759.968262,488.495300 
	C760.080933,477.664215 760.080566,466.830170 759.957458,455.999298 
	C759.912842,452.074188 759.157837,448.157074 759.114380,444.232056 
	C758.992310,433.199310 759.071838,422.164307 759.071838,411.130219 
	C759.468140,410.987518 759.864502,410.844818 760.260803,410.702118 
	C776.329285,430.461243 792.397827,450.220337 808.988037,470.481171 
M350.998016,599.596191 
	C350.927734,596.834656 351.996338,592.888000 350.580109,591.527039 
	C345.745605,586.881104 342.052032,593.488281 337.099518,593.898560 
	C335.513367,590.863403 333.830170,587.642578 332.108795,584.348755 
	C332.714569,583.854553 333.174530,583.358521 333.735352,583.039856 
	C342.377258,578.129639 350.500793,572.839355 355.807037,563.862305 
	C361.668427,553.945984 359.052155,540.239990 349.449921,533.877808 
	C342.765533,529.448914 335.644409,528.556274 327.793182,529.912170 
	C315.978424,531.952637 306.749542,541.224060 305.911804,553.543518 
	C305.224396,563.652527 309.173920,572.146606 313.915924,580.585693 
	C310.069672,582.451721 306.248932,584.151855 302.569946,586.117310 
	C287.689026,594.066650 277.350220,604.919739 278.989899,623.372498 
	C280.103485,635.904419 285.808044,646.007874 297.090302,651.303345 
	C309.842712,657.288757 323.254639,656.675476 336.073578,650.399658 
	C340.796112,648.087524 345.303253,645.335510 349.697388,642.901245 
	C353.712616,647.363098 357.231232,651.889038 361.377686,655.738770 
	C367.874146,661.770447 375.104340,666.768188 384.633087,665.888306 
	C386.157318,665.747559 388.367676,664.420593 388.808350,663.141541 
	C389.503296,661.124451 389.355560,658.847839 386.337494,657.640320 
	C375.732574,653.397095 368.996643,644.694458 362.536896,635.862000 
	C361.756683,634.795227 361.825714,632.123230 362.632996,631.034668 
	C369.299622,622.045288 376.831390,613.644409 382.931396,604.301575 
	C390.190063,593.184082 393.823700,581.122864 386.051086,568.373474 
	C383.608826,564.367554 380.417542,561.457275 375.485504,562.118958 
	C373.378845,562.401550 371.447296,563.989136 368.950653,565.223816 
	C370.472626,566.885864 370.956238,567.576782 371.589050,568.080200 
	C379.010376,573.984497 379.428162,581.574463 376.642181,589.776733 
	C372.700897,601.380249 364.046631,609.933167 356.956665,619.478638 
	C355.130829,621.936768 353.280548,621.758606 351.885529,618.585571 
	C349.264282,612.623535 349.304749,606.621216 350.998016,599.596191 
M664.479736,384.000000 
	C656.695923,384.000000 648.912048,384.000000 640.581055,384.000000 
	C648.436707,389.859314 649.936462,392.024597 646.293152,402.256561 
	C638.665344,423.679169 630.970581,445.078674 623.154053,466.433014 
	C619.970459,475.130493 618.504089,484.769775 610.488342,491.008453 
	C608.657410,492.433502 606.893372,493.944519 604.093079,496.240295 
	C617.186951,496.240295 628.873413,496.240295 640.559814,496.240295 
	C628.922791,487.570740 633.944641,477.236206 636.497742,467.178040 
	C652.227783,467.178040 668.003479,467.178040 683.718323,467.178040 
	C688.321411,480.798004 693.421265,486.239777 682.562073,496.342682 
	C697.503479,497.686462 711.673279,498.960815 725.843079,500.235199 
	C725.373108,498.046661 724.549377,497.267609 723.862488,496.382416 
	C720.876099,492.533600 716.765808,489.082733 715.156677,484.716034 
	C704.468506,455.711182 694.327698,426.504730 683.990479,397.370422 
	C679.056274,383.463898 681.816772,383.851593 664.479736,384.000000 
M169.892914,398.000031 
	C174.501251,398.000031 179.109604,398.000031 184.659332,398.000031 
	C184.659332,446.269104 184.659332,494.046997 184.659332,541.692505 
	C193.024780,541.692505 200.429062,541.692505 208.187592,541.692505 
	C208.187592,493.668793 208.187592,445.951691 208.187592,398.624664 
	C224.351196,395.342865 235.857071,400.842194 242.758026,416.163513 
	C245.095779,404.696808 242.100677,393.944275 241.837219,383.969879 
	C235.848007,384.328430 230.240692,384.910248 224.629227,384.953766 
	C207.974899,385.082886 191.318405,385.078613 174.663834,384.967072 
	C166.242996,384.910675 157.824432,384.510315 148.999756,384.253662 
	C147.657990,394.010742 146.162827,404.883301 144.632584,416.010895 
	C146.106400,415.927826 146.988159,416.143524 147.366516,415.801788 
	C148.164474,415.081085 148.795654,414.122253 149.326126,413.167206 
	C153.705994,405.281647 159.942032,399.827728 169.892914,398.000031 
M451.060760,443.578217 
	C461.646057,447.713562 472.488678,451.301422 482.750946,456.124146 
	C495.303345,462.023102 493.956451,477.771820 485.354401,483.701172 
	C474.168335,491.411591 458.040894,489.309723 448.148071,479.705109 
	C441.665009,473.410828 438.680725,465.180542 434.956329,457.316681 
	C433.996399,455.289764 432.597900,453.470520 430.994385,450.905762 
	C427.670471,457.451752 429.197662,462.913361 430.013245,468.329865 
	C431.090546,475.484406 433.775574,481.969025 438.800262,487.254639 
	C445.390106,494.186829 453.392975,497.857025 463.050507,499.202057 
	C479.179504,501.448364 493.512573,499.305817 504.942047,486.566467 
	C514.185974,476.263184 515.394714,460.712708 508.484680,448.777191 
	C502.119110,437.782227 491.469635,433.531525 480.732269,428.970093 
	C471.753540,425.155792 462.722137,421.379578 454.086029,416.873627 
	C447.964874,413.679901 446.640991,406.125702 449.461517,399.928864 
	C454.865784,388.055237 476.482941,389.890900 481.824646,399.874420 
	C485.130554,406.053070 486.917297,413.044556 489.480927,419.926056 
	C493.215027,414.960907 495.434113,409.524231 494.071472,402.666321 
	C491.944550,391.961761 486.286163,385.164032 476.550232,383.144928 
	C470.989807,381.991821 465.117859,382.359833 459.389343,381.993500 
	C450.820343,381.445587 443.602356,384.345184 437.133545,389.937347 
	C428.216675,397.645874 425.390961,412.957489 429.207367,422.462036 
	C433.200256,432.406067 440.457367,439.211945 451.060760,443.578217 
M583.852112,495.986389 
	C583.983765,495.350891 584.368286,494.232025 584.210632,494.149567 
	C578.215332,491.013153 576.996582,485.577332 576.997803,479.511444 
	C577.002930,453.361816 577.000000,427.212219 577.000000,401.062592 
	C577.000000,399.445709 577.000000,397.828796 577.000000,395.939636 
	C583.386841,396.062500 589.502625,396.117798 593.848877,400.559052 
	C597.788086,404.584473 600.792542,409.524536 604.209167,414.061340 
	C604.621216,413.937775 605.033325,413.814209 605.445374,413.690674 
	C604.271606,403.722504 603.161316,393.745544 601.780090,383.806244 
	C601.688782,383.148651 599.486389,382.266052 598.347595,382.371399 
	C595.163330,382.666138 592.026428,383.891876 588.862976,383.922150 
	C571.709045,384.086182 554.552429,384.049744 537.397583,383.942474 
	C535.023376,383.927643 532.662842,382.900055 530.278564,382.812317 
	C529.210693,382.773071 527.356567,383.696167 527.132080,384.526642 
	C525.874023,389.180695 524.914673,393.922943 524.028015,398.667755 
	C523.156982,403.328949 522.494507,408.029083 521.740479,412.712097 
	C522.193604,413.097382 522.646790,413.482666 523.099915,413.867950 
	C530.213318,402.171082 538.920349,393.699493 554.000000,397.691223 
	C554.000000,399.085114 554.000000,400.719574 554.000000,402.354034 
	C554.000000,426.171844 553.997009,449.989655 554.001648,473.807465 
	C554.003174,481.755035 554.890015,490.014252 545.643555,494.629120 
	C545.887024,495.085785 546.130554,495.542480 546.374023,495.999176 
	C558.570374,495.999176 570.766724,495.999176 583.852112,495.986389 
M188.000122,609.642700 
	C188.000061,612.798096 187.948578,615.954407 188.008774,619.108643 
	C188.282837,633.470154 194.712326,644.342468 206.614014,652.224731 
	C216.661621,658.879150 227.368546,660.872620 239.399445,659.221741 
	C249.173737,657.880493 257.577576,654.152161 265.556091,648.869385 
	C268.967926,646.610352 268.860504,642.997314 267.364929,640.075317 
	C265.519257,636.469299 262.430420,637.973145 259.820984,639.704285 
	C258.473816,640.598022 257.272003,641.718384 255.898132,642.563416 
	C242.597733,650.743225 228.163406,652.293945 214.848236,644.666321 
	C193.361557,632.357788 194.709763,602.446960 213.255920,588.962463 
	C227.931274,578.292297 245.193192,576.636292 262.357788,575.140320 
	C271.452332,574.347717 280.674042,574.916077 289.835754,575.048096 
	C292.823029,575.091125 295.802155,575.697571 298.824951,576.051025 
	C299.149597,568.406372 296.780609,565.188171 290.505554,565.058228 
	C280.182281,564.844543 269.801453,564.359924 259.536224,565.160645 
	C246.588425,566.170593 233.643661,567.861755 220.857880,570.153320 
	C202.650330,573.416565 184.505020,576.951416 165.901184,575.931580 
	C157.525070,575.472351 149.066452,574.634521 142.272034,568.745239 
	C140.058990,566.826965 137.240845,567.125183 135.999725,568.862549 
	C134.832275,570.496826 134.675278,573.597595 135.337830,575.643860 
	C136.847198,580.305420 141.465958,581.604858 145.532639,582.936951 
	C161.080856,588.030090 176.992676,586.200928 192.859879,585.075256 
	C195.124084,584.914551 197.422745,585.239319 199.705444,585.339478 
	C193.072098,592.457336 189.865784,600.262756 188.000122,609.642700 
M482.719116,236.000076 
	C473.363373,238.022934 465.961884,243.014725 460.608765,251.081924 
	C450.272156,236.836411 436.972290,231.808258 422.594147,236.430832 
	C399.398926,243.888107 392.284607,268.582703 405.160370,287.410522 
	C411.029297,295.992523 418.226807,303.699158 425.132233,311.528992 
	C431.035339,318.222412 437.266907,324.639252 443.566071,330.966492 
	C449.379761,336.806061 455.476349,342.364014 461.639557,348.227936 
	C472.678131,336.719727 483.505371,325.943756 493.722839,314.617767 
	C501.904083,305.548920 509.793610,296.139954 516.995789,286.284973 
	C525.256592,274.981415 523.684448,255.861908 513.498535,245.905029 
	C505.050018,237.646515 495.379486,233.807083 482.719116,236.000076 
M374.000000,395.880432 
	C374.000000,424.024353 373.768860,452.171448 374.151947,480.310150 
	C374.256226,487.970581 372.749664,494.224213 366.583710,498.992004 
	C366.443695,499.100250 366.566101,499.547852 366.566101,500.261658 
	C378.967926,498.968506 391.355011,497.676880 404.912201,496.263245 
	C397.921173,492.134552 395.900085,486.811218 395.940186,480.116547 
	C396.089844,455.137665 396.067291,430.157013 395.959961,405.177673 
	C395.926727,397.446503 395.449463,389.726929 403.549042,384.253967 
	C390.446686,384.253967 378.446960,384.253967 367.665375,384.253967 
	C369.648346,387.611938 371.824158,391.296570 374.000000,395.880432 
M384.578186,338.995941 
	C385.193359,338.033508 386.182617,337.136261 386.363495,336.098145 
	C387.613892,328.922333 392.080841,324.360077 398.134796,320.937134 
	C398.967712,320.466156 399.508057,319.477570 401.202118,317.600067 
	C398.023163,318.148285 396.339569,318.610687 394.638824,318.686035 
	C392.740143,318.770203 390.244812,319.231140 389.023682,318.256714 
	C384.784424,314.873901 380.949463,310.976807 377.030945,307.202423 
	C374.357544,304.627350 371.801361,301.930634 368.794739,298.885162 
	C364.161133,306.508148 370.944458,310.466095 371.694611,315.849915 
	C368.110229,313.195862 365.012878,310.276367 361.883392,307.391724 
	C358.669952,304.429718 355.425110,301.501831 352.073181,298.448975 
	C347.220947,307.273132 355.970154,317.092529 372.739807,322.535431 
	C367.275421,325.208954 363.178406,328.980042 363.064819,335.381805 
	C362.980286,340.145721 366.377960,342.411316 370.992279,344.407959 
	C373.166595,335.939240 371.681946,324.888184 384.915680,323.814819 
	C383.825714,325.233093 383.057373,326.171875 382.357971,327.159485 
	C381.613647,328.210541 380.830536,329.254364 380.245605,330.394379 
	C378.089874,334.595917 378.916443,336.553650 384.578186,338.995941 
M533.678467,331.147675 
	C532.197083,328.859131 530.715698,326.570587 529.234314,324.282043 
	C532.562988,324.681580 536.068176,325.486420 537.871338,327.686340 
	C540.671387,331.102386 542.312622,335.468292 544.565918,339.656189 
	C547.786438,337.359192 551.019714,334.242981 549.922424,328.904419 
	C548.902771,323.943695 544.749268,320.426422 539.084229,320.073730 
	C533.557983,319.729675 527.993530,319.998962 522.445862,319.998962 
	C524.409546,318.899200 526.486511,318.621460 528.433594,317.960632 
	C533.257629,316.323425 538.041443,314.696869 540.291077,309.304352 
	C541.686768,305.958954 541.190613,303.711182 537.966736,301.979584 
	C534.675842,300.211975 532.524048,301.291534 530.949158,304.393280 
	C530.071777,306.121185 529.342407,308.022125 528.088867,309.440826 
	C525.432922,312.446533 522.486084,315.196228 519.639038,318.031219 
	C518.794983,318.871704 517.232483,319.614014 517.190308,320.460632 
	C517.148254,321.304779 518.494507,322.357605 519.416382,323.085571 
	C523.070435,325.971069 525.697449,329.216339 525.062378,334.343414 
	C524.717102,337.130798 524.644592,340.059784 525.118286,342.809631 
	C525.565308,345.404755 526.804199,347.575043 529.956116,344.656433 
	C533.799866,341.097198 536.581482,337.390991 533.678467,331.147675 
M347.968750,333.550018 
	C352.521484,329.869202 357.074249,326.188416 361.579132,322.546295 
	C358.451538,321.107605 354.453064,320.058044 351.439117,317.732513 
	C342.708984,310.996368 335.714355,309.085754 325.718536,313.413666 
	C331.398193,317.491150 336.465576,321.129089 340.702911,324.171112 
	C336.637604,328.445557 332.116547,333.025635 327.815308,337.803589 
	C325.985840,339.835815 326.905792,341.561493 329.462646,341.920746 
	C331.216187,342.167145 333.343323,342.303009 334.812897,341.541534 
	C339.151123,339.293610 343.245453,336.574982 347.968750,333.550018 
M573.746460,309.999969 
	C572.472961,310.188324 571.045898,310.069000 569.950928,310.615265 
	C563.134521,314.015808 556.392395,317.565430 549.659241,321.048248 
	C551.205383,322.042297 552.997559,323.401581 554.965149,324.422699 
	C562.323425,328.241302 567.485840,335.799530 576.335327,337.019958 
	C577.730835,337.212372 579.201233,336.862030 580.636902,336.762604 
	C580.479309,335.390839 580.786438,333.684326 580.082031,332.706512 
	C577.335693,328.894348 574.268860,325.313141 571.741394,322.168762 
	C575.285156,319.521698 579.941895,316.043274 584.598694,312.564850 
	C584.386047,311.887512 584.173462,311.210144 583.960815,310.532776 
	C580.859497,310.355194 577.758118,310.177612 573.746460,309.999969 
M560.108521,298.365082 
	C555.055603,302.761597 550.059387,307.225769 544.925293,311.525360 
	C542.436218,313.609894 539.688660,315.385834 536.898865,317.417450 
	C538.214233,318.125275 538.895020,318.571045 539.636719,318.860779 
	C540.078857,319.033508 540.627991,319.048828 541.109741,318.986328 
	C549.629272,317.881012 557.013306,314.772186 561.538269,306.949188 
	C563.299255,303.904755 564.324097,300.735504 560.108521,298.365082 
z"/>
<path fill="#FFFFFF" opacity="1.000000" stroke="none" 
	d="
M414.294708,634.322876 
	C411.370117,646.781067 410.557678,659.034180 410.997284,671.393738 
	C411.440155,683.845215 416.064606,694.605347 424.335999,703.792175 
	C431.854950,712.143311 440.397766,718.816284 451.494263,722.225403 
	C467.003967,726.990356 481.783386,725.835571 495.089020,716.821838 
	C507.132965,708.662842 512.633301,696.345520 507.063446,683.520935 
	C502.701843,673.478210 492.594391,669.076843 480.169373,672.058899 
	C469.399841,674.643738 460.918915,680.144104 457.766632,691.678894 
	C456.511200,696.272644 456.454559,700.546326 458.910919,704.832275 
	C460.079803,706.871948 462.402496,709.616150 459.550262,711.591309 
	C456.647858,713.601379 452.282593,713.734192 450.474670,710.636292 
	C447.895264,706.216553 444.781891,700.700562 445.355164,696.082031 
	C448.566589,670.208679 471.042572,658.740234 493.188293,661.144897 
	C506.159058,662.553406 515.488037,670.374390 519.605103,682.551819 
	C523.589417,694.336426 520.432922,705.964783 512.806396,715.437805 
	C499.003754,732.582275 480.423584,736.889160 459.169403,734.181824 
	C441.037292,731.872253 426.801483,723.225647 414.675110,710.210510 
	C414.155945,709.653320 413.441132,709.278320 411.883881,708.130005 
	C413.633453,716.217041 417.502686,722.006165 421.921234,727.296570 
	C432.061279,739.437378 445.172791,746.802795 460.657196,749.836731 
	C470.752686,751.814758 480.833282,751.247314 490.841583,748.982971 
	C511.315186,744.350769 527.316528,733.087036 538.709473,715.641846 
	C546.465332,703.765991 550.609436,690.736633 548.189575,676.191772 
	C547.968140,674.861023 549.569946,672.752502 550.897217,671.814697 
	C551.704468,671.244324 554.415222,671.773865 554.877014,672.594116 
	C556.567627,675.596985 558.535645,678.844543 558.859436,682.150818 
	C560.895813,702.944702 552.044739,719.569214 538.282654,734.266052 
	C527.926758,745.325256 515.511108,752.943481 500.982880,756.978760 
	C486.879578,760.896057 472.744354,761.899902 458.045593,759.249268 
	C440.157593,756.023376 425.540710,747.599976 413.365204,734.711670 
	C404.425201,725.248291 399.616730,713.461365 397.010345,700.780884 
	C396.493896,698.268127 396.099731,695.730164 395.546295,692.627014 
	C391.388031,696.204590 387.556732,699.650879 383.568176,702.904419 
	C371.251465,712.951355 356.949982,717.586731 341.232483,716.879028 
	C327.686035,716.268982 315.416992,711.586609 306.537994,700.848938 
	C302.455261,695.911560 299.193298,689.960693 300.141571,683.077515 
	C300.433350,680.959656 302.406311,679.073425 303.609497,677.081177 
	C305.396942,678.311096 307.463165,679.287964 308.882446,680.851990 
	C309.991364,682.074036 310.522797,683.971191 310.923981,685.660278 
	C313.983612,698.542114 327.354584,704.776855 337.754639,705.896912 
	C360.383972,708.334045 377.312714,697.908386 389.857727,680.194702 
	C393.450256,675.122009 394.508148,668.023560 395.907532,661.673096 
	C399.586090,644.979553 402.806335,628.185181 406.221741,611.433472 
	C409.474335,595.480530 413.507294,579.637207 415.749390,563.544006 
	C417.383881,551.812317 417.234589,539.724487 416.643402,527.857117 
	C416.470917,524.394836 412.048615,521.144348 409.456940,517.638000 
	C409.469940,517.634583 410.675262,517.052063 411.885254,517.042175 
	C421.217804,516.965698 430.557678,516.822144 439.878632,517.159607 
	C441.609589,517.222290 444.003693,518.979797 444.838959,520.600708 
	C451.399933,533.332764 457.495728,546.304443 464.045898,559.042358 
	C472.478241,575.440430 481.199463,591.690063 490.155090,608.684448 
	C495.387787,598.188965 500.455994,588.224976 505.343628,578.173096 
	C512.841736,562.752441 520.300537,547.311340 527.601807,531.796936 
	C530.690674,525.233398 529.512329,521.746826 523.353638,517.331177 
	C538.945801,517.331177 554.391357,517.331177 570.816650,517.331177 
	C569.702637,518.307739 569.364929,518.791809 568.906433,518.976990 
	C563.382202,521.208008 561.934631,525.557068 561.950623,531.123535 
	C562.049072,565.289307 562.016602,599.455505 561.985413,633.621521 
	C561.979492,640.097229 563.771301,645.397644 570.312683,648.097412 
	C571.058044,648.405151 571.523315,649.391541 572.638794,650.650574 
	C557.008118,650.650574 542.163208,650.650574 526.081238,650.650574 
	C528.201355,648.859253 529.512573,647.387573 531.132629,646.448181 
	C536.824036,643.148071 538.766418,637.427917 538.833496,631.779846 
	C539.186890,602.022400 538.999084,572.258545 537.959534,542.127258 
	C520.457642,577.105469 502.955780,612.083679 484.889221,648.190430 
	C466.777924,613.503296 449.105347,579.656372 431.432770,545.809448 
	C428.186066,575.892761 419.980988,604.670837 414.294708,634.322876 
z"/>
<path fill="#FFFFFF" opacity="1.000000" stroke="none" 
	d="
M257.047668,513.861084 
	C257.392517,511.864929 257.959351,510.300659 257.961426,508.735687 
	C258.010986,471.264130 257.995392,433.792480 258.006958,396.320862 
	C258.008148,392.415527 257.147736,389.004608 253.509842,386.781189 
	C253.046646,386.498108 253.120026,385.337036 252.809479,384.000000 
	C255.896637,384.000000 258.658203,384.000000 261.419800,384.000000 
	C276.408447,384.000000 291.410461,383.608734 306.381714,384.119110 
	C319.233276,384.557220 329.371124,390.966217 336.098511,401.742706 
	C343.644318,413.830353 342.764008,426.099579 335.393005,438.308899 
	C330.911621,445.731873 324.540710,450.581024 317.477081,454.373535 
	C321.254669,459.099182 325.558899,463.647430 328.878479,468.826721 
	C334.247742,477.204010 338.940735,486.013153 343.973572,494.608124 
	C348.627716,502.556458 355.066589,508.531219 363.581940,512.223389 
	C365.469177,513.041687 367.201263,514.217834 369.209381,515.343933 
	C351.083313,525.610291 334.034637,517.235901 324.137787,503.827820 
	C316.420044,493.371857 309.816223,482.069794 303.068268,470.931152 
	C299.247009,464.623505 294.654480,460.629700 286.790863,461.956818 
	C285.044769,462.251465 283.206512,462.000000 281.003357,462.000000 
	C281.003357,476.629578 280.742188,490.910034 281.139954,505.172119 
	C281.286377,510.421387 284.308655,514.609131 289.838501,516.335083 
	C289.873932,516.802002 289.909363,517.268921 289.944763,517.735901 
	C277.787506,519.938843 265.630249,522.141846 252.355057,524.547424 
	C254.224335,520.426453 255.615463,517.359558 257.047668,513.861084 
M309.912384,400.389526 
	C300.786255,395.354767 290.986603,395.607483 281.314880,396.248138 
	C281.314880,414.761536 281.314880,432.805725 281.314880,450.817352 
	C303.466675,452.656464 313.257965,444.549957 317.586060,434.569000 
	C322.670868,422.842957 321.153290,408.870758 309.912384,400.389526 
z"/>
<path fill="#FFFFFF" opacity="1.000000" stroke="none" 
	d="
M689.090210,568.001221 
	C705.735779,565.007507 721.848083,560.534790 738.185669,559.448059 
	C753.838806,558.406860 769.914673,556.762695 785.529602,561.055786 
	C789.299988,562.092407 792.602844,564.045654 791.985535,568.892517 
	C791.579529,572.080566 789.806885,573.273071 786.666626,572.270020 
	C774.380005,568.345581 761.655945,568.308655 749.077209,569.186646 
	C737.779541,569.975159 726.496338,571.863647 715.377808,574.112854 
	C699.460205,577.332764 683.677124,581.234558 667.880005,585.025696 
	C661.340637,586.595215 654.913330,588.631470 648.002625,590.577209 
	C648.002625,605.526672 647.767639,620.838867 648.135254,636.136536 
	C648.257141,641.208069 650.390808,645.923401 655.691162,648.263550 
	C656.307983,648.535828 656.648926,649.432922 657.563293,650.617554 
	C643.028259,650.617554 629.176392,650.617554 614.016113,650.617554 
	C615.728333,649.380188 616.658997,648.643433 617.651306,648.001953 
	C621.742554,645.356934 625.141113,642.451294 625.055115,636.844788 
	C624.873840,625.025391 625.000000,613.201233 625.000000,600.634216 
	C612.717896,605.020386 600.875122,609.259827 589.022156,613.470764 
	C587.363953,614.059875 585.663574,614.883240 583.969055,614.917053 
	C582.310181,614.950317 579.613281,614.550537 579.190125,613.562256 
	C578.441467,611.814087 578.245422,608.735352 579.308533,607.548767 
	C581.130066,605.515625 583.969116,604.183350 586.609619,603.130981 
	C598.950989,598.212341 611.370605,593.490051 624.086792,588.572083 
	C608.214172,565.352417 598.266418,538.546936 579.498535,517.093140 
	C590.131836,517.093140 600.745483,517.093140 611.526855,517.093140 
	C612.830872,530.999939 621.739136,541.456665 627.778564,553.193909 
	C631.158997,559.763611 635.125916,566.031860 638.840393,572.429077 
	C639.379639,573.357727 639.984497,574.248169 641.152466,576.094299 
	C643.881714,571.234070 646.242310,567.127441 648.511292,562.970825 
	C654.054749,552.815369 659.757996,542.739685 665.005737,532.432678 
	C668.753357,525.072144 668.051514,522.880981 661.548828,517.457031 
	C671.981934,517.457031 681.879089,517.457031 692.194641,517.457031 
	C676.630005,534.918518 668.683411,556.681946 655.146179,576.668335 
	C667.237610,573.541321 677.946472,570.771851 689.090210,568.001221 
z"/>
<path fill="#FFFFFF" opacity="1.000000" stroke="none" 
	d="
M808.727173,470.230316 
	C792.397827,450.220337 776.329285,430.461243 760.260803,410.702118 
	C759.864502,410.844818 759.468140,410.987518 759.071838,411.130219 
	C759.071838,422.164307 758.992310,433.199310 759.114380,444.232056 
	C759.157837,448.157074 759.912842,452.074188 759.957458,455.999298 
	C760.080566,466.830170 760.080933,477.664215 759.968262,488.495300 
	C759.905273,494.552094 761.453552,499.678711 767.207153,502.859222 
	C767.097534,503.313538 766.987915,503.767883 766.878357,504.222229 
	C757.630981,503.518860 748.383606,502.815491 738.449585,502.059875 
	C740.594849,498.779083 742.612427,496.255188 743.983154,493.418701 
	C745.067383,491.175018 745.905151,488.549927 745.916382,486.089966 
	C746.047058,457.426697 745.893005,428.761932 746.079407,400.099304 
	C746.123047,393.396057 745.172668,387.751495 737.957336,384.558960 
	C738.915710,384.372681 739.872742,384.033447 740.832703,384.025177 
	C746.664978,383.974945 752.603333,384.701477 758.307434,383.844604 
	C768.226379,382.354553 773.737000,387.831360 779.025452,394.760162 
	C788.190125,406.767487 797.632996,418.562408 806.949097,430.454254 
	C810.350586,434.796265 813.755981,439.135986 817.090820,443.528992 
	C818.177856,444.960968 819.046753,446.558533 820.015381,448.080353 
	C820.556641,447.706573 821.097839,447.332764 821.639099,446.958984 
	C821.759399,445.759735 821.982239,444.560699 821.984375,443.361237 
	C822.009033,429.695984 821.922852,416.029999 822.030701,402.365540 
	C822.089417,394.921570 822.139648,387.638123 812.566284,385.001648 
	C812.806702,384.607330 813.047180,384.213043 813.287659,383.818726 
	C823.452026,383.818726 833.616394,383.818726 844.223511,383.818726 
	C843.439392,384.392426 842.746277,384.823914 842.140747,385.355255 
	C838.854614,388.238739 836.792786,391.210449 836.832947,396.252533 
	C837.138184,434.579651 836.917725,472.910736 837.106506,511.239380 
	C837.129517,515.912537 835.856689,517.425964 831.202515,517.093201 
	C825.668091,516.697449 820.083801,517.000000 814.677124,517.000000 
	C814.511108,515.761230 814.345581,515.262634 814.449768,515.197876 
	C819.527893,512.041199 821.664978,507.454956 822.084534,501.520813 
	C822.730835,492.377747 821.568359,484.014069 814.736328,477.184509 
	C812.660706,475.109680 810.895447,472.724304 808.727173,470.230316 
z"/>
<path fill="#FFFFFF" opacity="1.000000" stroke="none" 
	d="
M350.970642,600.041992 
	C349.304749,606.621216 349.264282,612.623535 351.885529,618.585571 
	C353.280548,621.758606 355.130829,621.936768 356.956665,619.478638 
	C364.046631,609.933167 372.700897,601.380249 376.642181,589.776733 
	C379.428162,581.574463 379.010376,573.984497 371.589050,568.080200 
	C370.956238,567.576782 370.472626,566.885864 368.950653,565.223816 
	C371.447296,563.989136 373.378845,562.401550 375.485504,562.118958 
	C380.417542,561.457275 383.608826,564.367554 386.051086,568.373474 
	C393.823700,581.122864 390.190063,593.184082 382.931396,604.301575 
	C376.831390,613.644409 369.299622,622.045288 362.632996,631.034668 
	C361.825714,632.123230 361.756683,634.795227 362.536896,635.862000 
	C368.996643,644.694458 375.732574,653.397095 386.337494,657.640320 
	C389.355560,658.847839 389.503296,661.124451 388.808350,663.141541 
	C388.367676,664.420593 386.157318,665.747559 384.633087,665.888306 
	C375.104340,666.768188 367.874146,661.770447 361.377686,655.738770 
	C357.231232,651.889038 353.712616,647.363098 349.697388,642.901245 
	C345.303253,645.335510 340.796112,648.087524 336.073578,650.399658 
	C323.254639,656.675476 309.842712,657.288757 297.090302,651.303345 
	C285.808044,646.007874 280.103485,635.904419 278.989899,623.372498 
	C277.350220,604.919739 287.689026,594.066650 302.569946,586.117310 
	C306.248932,584.151855 310.069672,582.451721 313.915924,580.585693 
	C309.173920,572.146606 305.224396,563.652527 305.911804,553.543518 
	C306.749542,541.224060 315.978424,531.952637 327.793182,529.912170 
	C335.644409,528.556274 342.765533,529.448914 349.449921,533.877808 
	C359.052155,540.239990 361.668427,553.945984 355.807037,563.862305 
	C350.500793,572.839355 342.377258,578.129639 333.735352,583.039856 
	C333.174530,583.358521 332.714569,583.854553 332.108795,584.348755 
	C333.830170,587.642578 335.513367,590.863403 337.099518,593.898560 
	C342.052032,593.488281 345.745605,586.881104 350.580109,591.527039 
	C351.996338,592.888000 350.927734,596.834656 350.970642,600.041992 
M304.397919,603.068359 
	C295.637268,615.892334 296.959290,629.148865 308.692413,637.968201 
	C317.597565,644.661804 332.762756,642.505615 342.806641,632.463013 
	C335.030396,618.631958 327.258545,604.808777 319.399353,590.830200 
	C316.846130,592.439941 314.230591,593.749146 312.032318,595.563904 
	C309.479584,597.671265 307.292938,600.222046 304.397919,603.068359 
M338.323761,566.970642 
	C340.751556,563.617493 344.015900,560.581970 345.434570,556.845642 
	C348.471161,548.848267 344.006958,541.032532 336.122101,539.057251 
	C329.825745,537.479919 321.233276,542.260071 320.223419,548.771973 
	C318.810486,557.883240 320.668274,566.527039 326.756409,574.290405 
	C330.397797,571.851196 333.991638,569.443848 338.323761,566.970642 
z"/>
<path fill="#FFFFFF" opacity="1.000000" stroke="none" 
	d="
M664.974670,384.000000 
	C681.816772,383.851593 679.056274,383.463898 683.990479,397.370422 
	C694.327698,426.504730 704.468506,455.711182 715.156677,484.716034 
	C716.765808,489.082733 720.876099,492.533600 723.862488,496.382416 
	C724.549377,497.267609 725.373108,498.046661 725.843079,500.235199 
	C711.673279,498.960815 697.503479,497.686462 682.562073,496.342682 
	C693.421265,486.239777 688.321411,480.798004 683.718323,467.178040 
	C668.003479,467.178040 652.227783,467.178040 636.497742,467.178040 
	C633.944641,477.236206 628.922791,487.570740 640.559814,496.240295 
	C628.873413,496.240295 617.186951,496.240295 604.093079,496.240295 
	C606.893372,493.944519 608.657410,492.433502 610.488342,491.008453 
	C618.504089,484.769775 619.970459,475.130493 623.154053,466.433014 
	C630.970581,445.078674 638.665344,423.679169 646.293152,402.256561 
	C649.936462,392.024597 648.436707,389.859314 640.581055,384.000000 
	C648.912048,384.000000 656.695923,384.000000 664.974670,384.000000 
M656.554932,413.960297 
	C651.305542,427.824585 646.056152,441.688904 640.691284,455.858276 
	C654.023254,455.858276 666.799255,455.858276 680.011719,455.858276 
	C673.839661,438.435913 667.721924,421.166901 661.604248,403.897919 
	C661.130554,403.821289 660.656860,403.744690 660.183167,403.668091 
	C659.111267,406.865570 658.039307,410.063049 656.554932,413.960297 
z"/>
<path fill="#FFFFFF" opacity="1.000000" stroke="none" 
	d="
M169.439728,398.000488 
	C159.942032,399.827728 153.705994,405.281647 149.326126,413.167206 
	C148.795654,414.122253 148.164474,415.081085 147.366516,415.801788 
	C146.988159,416.143524 146.106400,415.927826 144.632584,416.010895 
	C146.162827,404.883301 147.657990,394.010742 148.999756,384.253662 
	C157.824432,384.510315 166.242996,384.910675 174.663834,384.967072 
	C191.318405,385.078613 207.974899,385.082886 224.629227,384.953766 
	C230.240692,384.910248 235.848007,384.328430 241.837219,383.969879 
	C242.100677,393.944275 245.095779,404.696808 242.758026,416.163513 
	C235.857071,400.842194 224.351196,395.342865 208.187592,398.624664 
	C208.187592,445.951691 208.187592,493.668793 208.187592,541.692505 
	C200.429062,541.692505 193.024780,541.692505 184.659332,541.692505 
	C184.659332,494.046997 184.659332,446.269104 184.659332,398.000031 
	C179.109604,398.000031 174.501251,398.000031 169.439728,398.000488 
z"/>
<path fill="#FFFFFF" opacity="1.000000" stroke="none" 
	d="
M450.769775,443.311066 
	C440.457367,439.211945 433.200256,432.406067 429.207367,422.462036 
	C425.390961,412.957489 428.216675,397.645874 437.133545,389.937347 
	C443.602356,384.345184 450.820343,381.445587 459.389343,381.993500 
	C465.117859,382.359833 470.989807,381.991821 476.550232,383.144928 
	C486.286163,385.164032 491.944550,391.961761 494.071472,402.666321 
	C495.434113,409.524231 493.215027,414.960907 489.480927,419.926056 
	C486.917297,413.044556 485.130554,406.053070 481.824646,399.874420 
	C476.482941,389.890900 454.865784,388.055237 449.461517,399.928864 
	C446.640991,406.125702 447.964874,413.679901 454.086029,416.873627 
	C462.722137,421.379578 471.753540,425.155792 480.732269,428.970093 
	C491.469635,433.531525 502.119110,437.782227 508.484680,448.777191 
	C515.394714,460.712708 514.185974,476.263184 504.942047,486.566467 
	C493.512573,499.305817 479.179504,501.448364 463.050507,499.202057 
	C453.392975,497.857025 445.390106,494.186829 438.800262,487.254639 
	C433.775574,481.969025 431.090546,475.484406 430.013245,468.329865 
	C429.197662,462.913361 427.670471,457.451752 430.994385,450.905762 
	C432.597900,453.470520 433.996399,455.289764 434.956329,457.316681 
	C438.680725,465.180542 441.665009,473.410828 448.148071,479.705109 
	C458.040894,489.309723 474.168335,491.411591 485.354401,483.701172 
	C493.956451,477.771820 495.303345,462.023102 482.750946,456.124146 
	C472.488678,451.301422 461.646057,447.713562 450.769775,443.311066 
z"/>
<path fill="#FFFFFF" opacity="1.000000" stroke="none" 
	d="
M583.407593,495.992798 
	C570.766724,495.999176 558.570374,495.999176 546.374023,495.999176 
	C546.130554,495.542480 545.887024,495.085785 545.643555,494.629120 
	C554.890015,490.014252 554.003174,481.755035 554.001648,473.807465 
	C553.997009,449.989655 554.000000,426.171844 554.000000,402.354034 
	C554.000000,400.719574 554.000000,399.085114 554.000000,397.691223 
	C538.920349,393.699493 530.213318,402.171082 523.099915,413.867950 
	C522.646790,413.482666 522.193604,413.097382 521.740479,412.712097 
	C522.494507,408.029083 523.156982,403.328949 524.028015,398.667755 
	C524.914673,393.922943 525.874023,389.180695 527.132080,384.526642 
	C527.356567,383.696167 529.210693,382.773071 530.278564,382.812317 
	C532.662842,382.900055 535.023376,383.927643 537.397583,383.942474 
	C554.552429,384.049744 571.709045,384.086182 588.862976,383.922150 
	C592.026428,383.891876 595.163330,382.666138 598.347595,382.371399 
	C599.486389,382.266052 601.688782,383.148651 601.780090,383.806244 
	C603.161316,393.745544 604.271606,403.722504 605.445374,413.690674 
	C605.033325,413.814209 604.621216,413.937775 604.209167,414.061340 
	C600.792542,409.524536 597.788086,404.584473 593.848877,400.559052 
	C589.502625,396.117798 583.386841,396.062500 577.000000,395.939636 
	C577.000000,397.828796 577.000000,399.445709 577.000000,401.062592 
	C577.000000,427.212219 577.002930,453.361816 576.997803,479.511444 
	C576.996582,485.577332 578.215332,491.013153 584.210632,494.149567 
	C584.368286,494.232025 583.983765,495.350891 583.407593,495.992798 
z"/>
<path fill="#FFFFFF" opacity="1.000000" stroke="none" 
	d="
M188.001022,609.204590 
	C189.865784,600.262756 193.072098,592.457336 199.705444,585.339478 
	C197.422745,585.239319 195.124084,584.914551 192.859879,585.075256 
	C176.992676,586.200928 161.080856,588.030090 145.532639,582.936951 
	C141.465958,581.604858 136.847198,580.305420 135.337830,575.643860 
	C134.675278,573.597595 134.832275,570.496826 135.999725,568.862549 
	C137.240845,567.125183 140.058990,566.826965 142.272034,568.745239 
	C149.066452,574.634521 157.525070,575.472351 165.901184,575.931580 
	C184.505020,576.951416 202.650330,573.416565 220.857880,570.153320 
	C233.643661,567.861755 246.588425,566.170593 259.536224,565.160645 
	C269.801453,564.359924 280.182281,564.844543 290.505554,565.058228 
	C296.780609,565.188171 299.149597,568.406372 298.824951,576.051025 
	C295.802155,575.697571 292.823029,575.091125 289.835754,575.048096 
	C280.674042,574.916077 271.452332,574.347717 262.357788,575.140320 
	C245.193192,576.636292 227.931274,578.292297 213.255920,588.962463 
	C194.709763,602.446960 193.361557,632.357788 214.848236,644.666321 
	C228.163406,652.293945 242.597733,650.743225 255.898132,642.563416 
	C257.272003,641.718384 258.473816,640.598022 259.820984,639.704285 
	C262.430420,637.973145 265.519257,636.469299 267.364929,640.075317 
	C268.860504,642.997314 268.967926,646.610352 265.556091,648.869385 
	C257.577576,654.152161 249.173737,657.880493 239.399445,659.221741 
	C227.368546,660.872620 216.661621,658.879150 206.614014,652.224731 
	C194.712326,644.342468 188.282837,633.470154 188.008774,619.108643 
	C187.948578,615.954407 188.000061,612.798096 188.001022,609.204590 
z"/>
<path fill="#FFFFFF" opacity="1.000000" stroke="none" 
	d="
M483.153870,236.000031 
	C495.379486,233.807083 505.050018,237.646515 513.498535,245.905029 
	C523.684448,255.861908 525.256592,274.981415 516.995789,286.284973 
	C509.793610,296.139954 501.904083,305.548920 493.722839,314.617767 
	C483.505371,325.943756 472.678131,336.719727 461.639557,348.227936 
	C455.476349,342.364014 449.379761,336.806061 443.566071,330.966492 
	C437.266907,324.639252 431.035339,318.222412 425.132233,311.528992 
	C418.226807,303.699158 411.029297,295.992523 405.160370,287.410522 
	C392.284607,268.582703 399.398926,243.888107 422.594147,236.430832 
	C436.972290,231.808258 450.272156,236.836411 460.608765,251.081924 
	C465.961884,243.014725 473.363373,238.022934 483.153870,236.000031 
M409.000031,272.152039 
	C409.072418,272.974792 409.019012,273.832458 409.236359,274.614960 
	C411.834900,283.971680 418.233093,290.945618 424.466797,297.848053 
	C435.118927,309.642792 446.261292,320.993469 457.070648,332.648529 
	C459.525513,335.295502 461.199615,335.608795 463.838806,332.777069 
	C472.419891,323.569977 481.457794,314.783142 489.905609,305.459198 
	C496.349030,298.347504 502.620056,290.987030 508.132965,283.149963 
	C514.032898,274.762787 513.763489,265.047638 509.476746,256.243439 
	C505.329193,247.725113 493.671021,243.229446 484.861633,245.048401 
	C475.557190,246.969620 466.288208,255.574570 465.761078,265.109497 
	C465.687988,266.431458 462.499359,268.330322 460.589752,268.551392 
	C459.201660,268.712097 456.296600,266.638794 456.205109,265.403290 
	C455.498810,255.863297 449.784424,250.285583 441.688293,247.055756 
	C433.583069,243.822296 425.557007,243.499908 417.905396,249.420273 
	C410.512482,255.140488 408.513885,262.563049 409.000031,272.152039 
z"/>
<path fill="#FFFFFF" opacity="1.000000" stroke="none" 
	d="
M374.000000,395.430786 
	C371.824158,391.296570 369.648346,387.611938 367.665375,384.253967 
	C378.446960,384.253967 390.446686,384.253967 403.549042,384.253967 
	C395.449463,389.726929 395.926727,397.446503 395.959961,405.177673 
	C396.067291,430.157013 396.089844,455.137665 395.940186,480.116547 
	C395.900085,486.811218 397.921173,492.134552 404.912201,496.263245 
	C391.355011,497.676880 378.967926,498.968506 366.566101,500.261658 
	C366.566101,499.547852 366.443695,499.100250 366.583710,498.992004 
	C372.749664,494.224213 374.256226,487.970581 374.151947,480.310150 
	C373.768860,452.171448 374.000000,424.024353 374.000000,395.430786 
z"/>
<path fill="#FFFFFF" opacity="1.000000" stroke="none" 
	d="
M384.171875,338.997131 
	C378.916443,336.553650 378.089874,334.595917 380.245605,330.394379 
	C380.830536,329.254364 381.613647,328.210541 382.357971,327.159485 
	C383.057373,326.171875 383.825714,325.233093 384.915680,323.814819 
	C371.681946,324.888184 373.166595,335.939240 370.992279,344.407959 
	C366.377960,342.411316 362.980286,340.145721 363.064819,335.381805 
	C363.178406,328.980042 367.275421,325.208954 372.739807,322.535431 
	C355.970154,317.092529 347.220947,307.273132 352.073181,298.448975 
	C355.425110,301.501831 358.669952,304.429718 361.883392,307.391724 
	C365.012878,310.276367 368.110229,313.195862 371.694611,315.849915 
	C370.944458,310.466095 364.161133,306.508148 368.794739,298.885162 
	C371.801361,301.930634 374.357544,304.627350 377.030945,307.202423 
	C380.949463,310.976807 384.784424,314.873901 389.023682,318.256714 
	C390.244812,319.231140 392.740143,318.770203 394.638824,318.686035 
	C396.339569,318.610687 398.023163,318.148285 401.202118,317.600067 
	C399.508057,319.477570 398.967712,320.466156 398.134796,320.937134 
	C392.080841,324.360077 387.613892,328.922333 386.363495,336.098145 
	C386.182617,337.136261 385.193359,338.033508 384.171875,338.997131 
z"/>
<path fill="#FFFFFF" opacity="1.000000" stroke="none" 
	d="
M533.828247,331.517212 
	C536.581482,337.390991 533.799866,341.097198 529.956116,344.656433 
	C526.804199,347.575043 525.565308,345.404755 525.118286,342.809631 
	C524.644592,340.059784 524.717102,337.130798 525.062378,334.343414 
	C525.697449,329.216339 523.070435,325.971069 519.416382,323.085571 
	C518.494507,322.357605 517.148254,321.304779 517.190308,320.460632 
	C517.232483,319.614014 518.794983,318.871704 519.639038,318.031219 
	C522.486084,315.196228 525.432922,312.446533 528.088867,309.440826 
	C529.342407,308.022125 530.071777,306.121185 530.949158,304.393280 
	C532.524048,301.291534 534.675842,300.211975 537.966736,301.979584 
	C541.190613,303.711182 541.686768,305.958954 540.291077,309.304352 
	C538.041443,314.696869 533.257629,316.323425 528.433594,317.960632 
	C526.486511,318.621460 524.409546,318.899200 522.445862,319.998962 
	C527.993530,319.998962 533.557983,319.729675 539.084229,320.073730 
	C544.749268,320.426422 548.902771,323.943695 549.922424,328.904419 
	C551.019714,334.242981 547.786438,337.359192 544.565918,339.656189 
	C542.312622,335.468292 540.671387,331.102386 537.871338,327.686340 
	C536.068176,325.486420 532.562988,324.681580 529.234314,324.282043 
	C530.715698,326.570587 532.197083,328.859131 533.828247,331.517212 
z"/>
<path fill="#FFFFFF" opacity="1.000000" stroke="none" 
	d="
M347.701965,333.795288 
	C343.245453,336.574982 339.151123,339.293610 334.812897,341.541534 
	C333.343323,342.303009 331.216187,342.167145 329.462646,341.920746 
	C326.905792,341.561493 325.985840,339.835815 327.815308,337.803589 
	C332.116547,333.025635 336.637604,328.445557 340.702911,324.171112 
	C336.465576,321.129089 331.398193,317.491150 325.718536,313.413666 
	C335.714355,309.085754 342.708984,310.996368 351.439117,317.732513 
	C354.453064,320.058044 358.451538,321.107605 361.579132,322.546295 
	C357.074249,326.188416 352.521484,329.869202 347.701965,333.795288 
z"/>
<path fill="#FFFFFF" opacity="1.000000" stroke="none" 
	d="
M574.201660,310.000000 
	C577.758118,310.177612 580.859497,310.355194 583.960815,310.532776 
	C584.173462,311.210144 584.386047,311.887512 584.598694,312.564850 
	C579.941895,316.043274 575.285156,319.521698 571.741394,322.168762 
	C574.268860,325.313141 577.335693,328.894348 580.082031,332.706512 
	C580.786438,333.684326 580.479309,335.390839 580.636963,336.762604 
	C579.201233,336.862030 577.730835,337.212372 576.335327,337.019958 
	C567.485840,335.799530 562.323425,328.241302 554.965149,324.422699 
	C552.997559,323.401581 551.205383,322.042297 549.659241,321.048248 
	C556.392395,317.565430 563.134521,314.015808 569.950928,310.615265 
	C571.045898,310.069000 572.472961,310.188324 574.201660,310.000000 
z"/>
<path fill="#FFFFFF" opacity="1.000000" stroke="none" 
	d="
M560.460449,298.198914 
	C564.324097,300.735504 563.299255,303.904755 561.538269,306.949188 
	C557.013306,314.772186 549.629272,317.881012 541.109741,318.986328 
	C540.627991,319.048828 540.078857,319.033508 539.636719,318.860779 
	C538.895020,318.571045 538.214233,318.125275 536.898865,317.417450 
	C539.688660,315.385834 542.436218,313.609894 544.925293,311.525360 
	C550.059387,307.225769 555.055603,302.761597 560.460449,298.198914 
z"/>
<path fill="#000000" opacity="1.000000" stroke="none" 
	d="
M310.169067,400.670898 
	C321.153290,408.870758 322.670868,422.842957 317.586060,434.569000 
	C313.257965,444.549957 303.466675,452.656464 281.314880,450.817352 
	C281.314880,432.805725 281.314880,414.761536 281.314880,396.248138 
	C290.986603,395.607483 300.786255,395.354767 310.169067,400.670898 
z"/>
<path fill="#000000" opacity="1.000000" stroke="none" 
	d="
M304.672668,602.824341 
	C307.292938,600.222046 309.479584,597.671265 312.032318,595.563904 
	C314.230591,593.749146 316.846130,592.439941 319.399353,590.830200 
	C327.258545,604.808777 335.030396,618.631958 342.806641,632.463013 
	C332.762756,642.505615 317.597565,644.661804 308.692413,637.968201 
	C296.959290,629.148865 295.637268,615.892334 304.672668,602.824341 
z"/>
<path fill="#000000" opacity="1.000000" stroke="none" 
	d="
M337.954620,567.003540 
	C333.991638,569.443848 330.397797,571.851196 326.756409,574.290405 
	C320.668274,566.527039 318.810486,557.883240 320.223419,548.771973 
	C321.233276,542.260071 329.825745,537.479919 336.122101,539.057251 
	C344.006958,541.032532 348.471161,548.848267 345.434570,556.845642 
	C344.015900,560.581970 340.751556,563.617493 337.954620,567.003540 
z"/>
<path fill="#000000" opacity="1.000000" stroke="none" 
	d="
M656.761108,413.610413 
	C658.039307,410.063049 659.111267,406.865570 660.183167,403.668091 
	C660.656860,403.744690 661.130554,403.821289 661.604248,403.897919 
	C667.721924,421.166901 673.839661,438.435913 680.011719,455.858276 
	C666.799255,455.858276 654.023254,455.858276 640.691284,455.858276 
	C646.056152,441.688904 651.305542,427.824585 656.761108,413.610413 
z"/>
<path fill="#000000" opacity="1.000000" stroke="none" 
	d="
M409.000000,271.697754 
	C408.513885,262.563049 410.512482,255.140488 417.905396,249.420273 
	C425.557007,243.499908 433.583069,243.822296 441.688293,247.055756 
	C449.784424,250.285583 455.498810,255.863297 456.205109,265.403290 
	C456.296600,266.638794 459.201660,268.712097 460.589752,268.551392 
	C462.499359,268.330322 465.687988,266.431458 465.761078,265.109497 
	C466.288208,255.574570 475.557190,246.969620 484.861633,245.048401 
	C493.671021,243.229446 505.329193,247.725113 509.476746,256.243439 
	C513.763489,265.047638 514.032898,274.762787 508.132965,283.149963 
	C502.620056,290.987030 496.349030,298.347504 489.905609,305.459198 
	C481.457794,314.783142 472.419891,323.569977 463.838806,332.777069 
	C461.199615,335.608795 459.525513,335.295502 457.070648,332.648529 
	C446.261292,320.993469 435.118927,309.642792 424.466797,297.848053 
	C418.233093,290.945618 411.834900,283.971680 409.236359,274.614960 
	C409.019012,273.832458 409.072418,272.974792 409.000000,271.697754 
z"/>
</svg>