<?xml version="1.0" encoding="utf-8"?>
<!DOCTYPE svg PUBLIC "-//W3C//DTD SVG 20010904//EN" "http://www.w3.org/TR/2001/REC-SVG-20010904/DTD/svg10.dtd">
<svg height="11.3778in" viewBox="0 0 1024 1024" width="11.3778in" xmlns="http://www.w3.org/2000/svg">
<path d="M 461.00,349.00            C 461.00,349.00 447.00,335.99 447.00,335.99              435.05,324.32 423.60,311.84 412.92,299.00              405.16,289.67 397.21,278.88 398.18,266.00              399.40,249.99 409.52,238.88 425.00,235.24              428.74,234.36 432.15,233.76 436.00,234.30              447.31,235.88 454.00,241.48 461.00,250.00              470.69,232.00 497.35,230.83 511.99,243.32              519.37,249.63 523.47,260.33 522.91,270.00              522.17,282.71 515.28,290.59 507.58,300.00              498.74,310.79 471.06,341.80 461.00,349.00 Z            M 428.00,245.30            C 415.18,247.84 408.30,258.21 409.09,271.00              409.92,284.40 424.14,297.78 432.96,307.00              432.96,307.00 441.04,316.00 441.04,316.00              441.04,316.00 454.42,329.94 454.42,329.94              456.50,332.13 458.71,334.28 462.00,333.34              465.80,332.27 475.48,320.53 479.00,317.00              479.00,317.00 488.72,307.00 488.72,307.00              500.41,293.73 518.34,277.54 510.05,258.00              508.68,254.79 506.70,251.92 503.91,249.80              493.64,241.98 478.54,244.04 470.53,254.04              465.91,259.81 466.10,267.59 461.00,267.66              455.79,267.74 456.04,259.43 451.61,254.04              446.12,247.37 436.33,244.49 428.00,245.30 Z            M 351.00,298.00            C 351.00,298.00 369.00,312.00 369.00,312.00              366.79,306.10 366.50,304.17 368.00,298.00              374.51,302.66 386.09,316.95 393.00,317.84              395.35,318.14 399.50,317.33 402.00,317.00              398.00,323.23 394.71,323.45 390.56,329.00              387.47,333.12 387.24,336.68 385.30,337.96              383.19,339.36 379.49,337.96 379.25,333.96              379.05,330.55 381.15,327.63 383.00,325.00              373.68,328.19 372.41,336.20 372.00,345.00              359.23,341.23 360.38,328.76 371.00,323.00              359.01,317.34 348.25,313.62 351.00,298.00 Z            M 536.00,318.00            C 539.02,314.43 541.46,313.00 545.00,310.08              545.00,310.08 552.00,304.13 552.00,304.13              553.89,302.51 558.15,298.49 560.77,298.91              567.46,299.98 560.12,310.70 557.90,312.79              551.92,318.41 543.76,319.89 536.00,318.00 Z            M 525.00,346.00            C 525.00,346.00 523.77,331.00 523.77,331.00              522.50,327.07 518.98,324.47 518.16,322.00              517.32,319.46 518.60,317.87 520.15,316.00              520.15,316.00 527.61,308.00 527.61,308.00              529.76,305.30 531.06,301.44 535.04,301.25              542.20,300.92 543.09,310.15 535.96,315.31              535.96,315.31 529.00,319.00 529.00,319.00              533.23,319.01 542.49,319.38 545.89,321.74              552.86,326.57 552.21,335.99 544.00,340.00              539.73,332.51 539.30,328.82 531.00,325.00              535.41,333.40 538.66,344.90 525.00,346.00 Z            M 549.00,320.00            C 549.00,320.00 569.00,310.63 569.00,310.63              569.00,310.63 585.00,310.00 585.00,310.00              582.32,318.91 573.09,318.99 574.99,324.17              576.55,328.41 580.33,328.40 581.00,337.00              570.54,338.39 566.89,333.88 559.00,328.16              555.72,325.78 552.57,323.91 549.00,322.00              549.00,322.00 549.00,320.00 549.00,320.00 Z            M 325.00,313.00            C 340.35,306.62 348.90,315.82 362.00,322.00              357.40,328.28 340.87,341.35 333.00,342.30              330.30,342.63 328.46,341.88 326.00,341.00              326.00,341.00 339.00,323.00 339.00,323.00              333.72,320.95 328.77,317.21 325.00,313.00 Z            M 370.00,312.00            C 370.00,312.00 369.00,312.00 369.00,312.00              369.00,312.00 370.00,313.00 370.00,313.00              370.00,313.00 370.00,312.00 370.00,312.00 Z            M 430.00,450.00            C 434.75,452.99 436.63,459.08 438.86,464.00              441.06,468.85 444.39,474.13 448.09,477.96              465.29,495.75 489.66,486.41 490.89,472.00              492.01,458.97 478.68,455.07 469.00,451.20              460.17,447.67 447.32,443.74 440.00,438.24              426.96,428.44 423.14,410.17 431.36,396.00              440.71,379.90 454.35,381.82 470.00,382.00              476.46,382.08 483.03,383.53 487.81,388.21              492.50,392.79 495.36,401.50 494.90,408.00              494.59,412.43 492.70,415.99 491.00,420.00              491.00,420.00 489.00,420.00 489.00,420.00              484.81,410.45 483.10,397.72 472.00,393.76              456.35,388.18 445.47,401.82 450.17,410.98              453.01,416.51 464.31,420.99 470.00,423.42              488.54,431.36 512.70,438.73 513.00,463.00              513.11,472.35 512.49,478.28 506.47,486.00              502.43,491.18 496.19,495.68 490.00,497.91              482.73,500.53 477.50,500.01 470.00,500.00              458.24,499.98 446.50,496.72 438.18,487.91              431.68,481.02 428.13,468.38 428.46,459.00              428.46,459.00 430.00,450.00 430.00,450.00 Z            M 521.00,413.00            C 521.00,413.00 524.88,391.00 524.88,391.00              526.20,385.51 526.47,382.16 533.00,382.62              533.00,382.62 571.00,384.00 571.00,384.00              571.00,384.00 581.00,382.98 581.00,382.98              581.00,382.98 591.00,382.98 591.00,382.98              593.79,382.57 598.09,381.34 600.57,382.98              603.04,384.70 602.93,388.34 603.28,391.00              604.13,397.39 606.40,409.11 605.00,415.00              605.00,415.00 590.99,399.70 590.99,399.70              590.99,399.70 577.00,396.00 577.00,396.00              577.00,396.00 577.00,454.00 577.00,454.00              577.00,461.91 576.24,479.23 578.89,486.00              580.06,489.01 583.05,492.23 585.00,495.00              578.19,496.94 553.65,496.00 545.00,496.00              545.00,496.00 552.35,485.00 552.35,485.00              552.35,485.00 554.00,454.00 554.00,454.00              554.00,454.00 554.00,398.00 554.00,398.00              554.00,398.00 546.00,397.39 546.00,397.39              535.84,398.19 529.44,406.35 524.00,414.00              524.00,414.00 522.00,414.00 522.00,414.00              522.00,414.00 521.00,413.00 521.00,413.00 Z            M 252.00,384.00            C 252.00,384.00 275.00,383.00 275.00,383.00              275.00,383.00 303.00,383.83 303.00,383.83              310.68,384.56 314.27,383.50 322.00,387.38              327.37,390.07 332.59,395.02 335.90,400.00              348.96,419.66 339.26,444.07 319.00,454.00              319.00,454.00 332.55,473.00 332.55,473.00              337.67,481.49 344.53,495.32 351.04,501.99              357.45,508.55 362.43,510.50 370.00,515.00              363.90,519.82 358.45,520.08 351.00,520.00              328.86,519.74 317.72,496.37 307.58,480.00              304.83,475.57 300.92,468.54 296.96,465.42              291.30,460.95 287.40,462.71 281.00,463.00              281.00,463.00 281.72,498.00 281.72,498.00              281.72,498.00 283.17,509.00 283.17,509.00              283.17,509.00 290.00,516.00 290.00,516.00              290.00,516.00 290.00,518.00 290.00,518.00              290.00,518.00 252.00,525.00 252.00,525.00              254.48,514.44 256.98,517.31 257.10,505.00              257.10,505.00 257.10,442.00 257.10,442.00              257.10,442.00 257.10,427.00 257.10,427.00              257.02,416.72 259.37,406.26 257.10,396.00              256.16,389.69 253.91,389.31 252.00,384.00 Z            M 640.00,384.00            C 640.00,384.00 661.00,384.00 661.00,384.00              665.48,383.98 675.05,382.75 678.78,385.02              681.62,386.75 682.66,391.01 683.67,394.00              683.67,394.00 691.00,415.00 691.00,415.00              691.00,415.00 705.31,455.00 705.31,455.00              705.31,455.00 715.06,482.00 715.06,482.00              718.40,490.28 724.27,492.83 726.00,501.00              726.00,501.00 682.00,497.00 682.00,497.00              682.00,497.00 687.92,486.28 687.92,486.28              687.92,486.28 684.00,468.00 684.00,468.00              684.00,468.00 644.00,468.00 644.00,468.00              642.17,468.04 639.89,467.99 638.30,469.02              634.58,471.42 633.51,481.97 634.56,486.00              635.69,490.37 638.96,493.16 641.00,497.00              641.00,497.00 604.00,497.00 604.00,497.00              607.15,490.88 613.14,488.38 617.02,481.00              617.02,481.00 625.34,458.00 625.34,458.00              625.34,458.00 638.69,421.00 638.69,421.00              640.67,415.43 648.26,397.82 646.94,393.00              646.02,389.65 642.30,386.65 640.00,384.00 Z            M 738.00,384.05            C 738.00,384.05 748.00,384.05 748.00,384.05              754.45,383.97 761.94,381.77 768.00,384.05              775.12,386.93 782.69,397.93 787.42,404.00              787.42,404.00 821.00,447.00 821.00,447.00              821.00,447.00 822.00,408.00 822.00,408.00              821.99,399.03 821.84,389.39 812.00,386.00              814.12,382.83 815.30,383.07 819.00,383.00              819.00,383.00 845.00,383.00 845.00,383.00              842.74,386.20 839.55,389.42 838.15,393.00              836.24,397.89 837.00,416.65 837.00,423.00              837.00,423.00 838.00,482.00 838.00,482.00              838.00,482.00 838.00,507.00 838.00,507.00              837.96,510.37 837.98,514.82 834.72,516.94              831.97,518.52 825.53,517.05 822.00,516.94              822.00,516.94 814.00,516.94 814.00,516.94              816.16,510.32 822.73,508.09 821.82,496.00              820.83,482.97 812.51,476.55 804.80,467.00              804.80,467.00 760.00,412.00 760.00,412.00              760.00,412.00 760.00,455.00 760.00,455.00              760.00,455.00 761.00,475.00 761.00,475.00              760.87,486.00 757.35,493.93 768.00,502.00              768.00,502.00 768.00,504.00 768.00,504.00              768.00,504.00 738.00,503.00 738.00,503.00              740.90,493.90 744.86,494.37 744.88,483.00              744.88,483.00 744.88,440.00 744.88,440.00              745.02,428.17 748.28,404.60 744.88,394.00              743.29,390.00 740.00,387.60 738.00,384.05 Z            M 148.00,384.00            C 148.00,384.00 168.00,384.00 168.00,384.00              168.00,384.00 184.00,385.00 184.00,385.00              184.00,385.00 212.00,385.00 212.00,385.00              212.00,385.00 227.00,384.00 227.00,384.00              227.00,384.00 242.00,384.00 242.00,384.00              243.35,391.52 246.04,410.75 242.00,417.00              237.13,406.23 227.59,397.28 215.00,398.18              215.00,398.18 209.00,399.00 209.00,399.00              209.00,399.00 209.00,542.00 209.00,542.00              209.00,542.00 184.00,542.00 184.00,542.00              184.00,542.00 184.00,398.00 184.00,398.00              175.27,398.00 167.61,397.48 160.00,402.80              152.99,407.70 150.69,413.47 148.39,415.01              146.95,415.97 145.62,415.87 144.00,416.00              144.00,416.00 148.00,384.00 148.00,384.00 Z            M 367.00,384.00            C 367.00,384.00 404.00,384.00 404.00,384.00              401.83,387.14 398.81,390.40 397.65,394.00              393.84,405.72 396.98,420.92 397.00,433.00              397.00,433.00 397.00,450.00 397.00,450.00              396.95,461.04 393.82,475.39 397.61,486.00              399.19,490.43 402.79,493.03 405.00,497.00              405.00,497.00 366.00,501.00 366.00,501.00              367.59,495.51 369.34,495.40 371.43,491.00              373.63,486.38 373.99,480.05 374.00,475.00              374.00,475.00 373.02,456.00 373.02,456.00              373.02,456.00 373.02,434.00 373.02,434.00              373.02,434.00 373.02,400.09 373.02,400.09              373.18,393.19 369.78,390.23 367.00,384.00 Z            M 282.00,451.00            C 291.52,451.00 302.14,450.62 309.98,444.47              322.12,434.94 324.12,411.27 310.98,401.64              302.73,395.57 291.72,396.00 282.00,396.00              282.00,396.00 282.00,451.00 282.00,451.00 Z            M 662.00,404.00            C 662.00,404.00 660.00,404.00 660.00,404.00              660.00,404.00 641.00,456.00 641.00,456.00              641.00,456.00 679.00,456.00 679.00,456.00              679.00,456.00 662.00,404.00 662.00,404.00 Z            M 409.00,517.00            C 409.00,517.00 425.00,516.18 425.00,516.18              425.00,516.18 433.00,516.96 433.00,516.96              433.00,516.96 442.79,518.02 442.79,518.02              442.79,518.02 448.54,526.00 448.54,526.00              448.54,526.00 457.26,544.00 457.26,544.00              457.26,544.00 483.26,594.00 483.26,594.00              483.26,594.00 490.00,607.00 490.00,607.00              490.00,607.00 505.78,575.00 505.78,575.00              505.78,575.00 519.31,547.00 519.31,547.00              521.48,542.26 528.91,529.63 527.94,525.00              527.45,522.64 524.46,519.12 523.00,517.00              523.00,517.00 571.00,517.00 571.00,517.00              568.89,520.40 565.34,522.19 563.70,526.00              561.15,531.92 562.00,550.67 562.00,558.00              562.00,558.00 562.00,626.00 562.00,626.00              562.02,630.60 562.54,638.05 565.01,641.96              567.70,646.22 570.26,645.80 573.00,651.00              573.00,651.00 526.00,651.00 526.00,651.00              528.86,645.79 532.01,645.49 535.15,640.96              538.16,636.62 537.99,633.00 538.00,628.00              538.00,628.00 538.00,573.00 538.00,573.00              538.00,565.65 538.80,550.35 537.00,544.00              537.00,544.00 518.25,583.00 518.25,583.00              518.25,583.00 497.25,625.00 497.25,625.00              497.25,625.00 485.00,649.00 485.00,649.00              485.00,649.00 466.74,615.00 466.74,615.00              466.74,615.00 450.26,584.00 450.26,584.00              450.26,584.00 432.00,549.00 432.00,549.00              432.00,549.00 425.60,585.00 425.60,585.00              420.34,611.27 412.61,637.16 411.09,664.00              410.73,670.45 413.00,681.97 415.45,688.00              418.58,695.68 423.14,701.24 429.00,706.99              432.98,710.89 437.16,714.33 442.00,717.13              449.07,721.21 457.81,723.90 466.00,723.77              469.42,724.04 473.68,724.14 477.00,723.77              487.73,721.60 500.22,713.49 505.64,704.00              513.75,689.76 503.04,672.77 489.00,672.04              475.01,671.31 458.86,681.01 457.79,696.00              457.28,703.10 462.80,707.69 460.00,711.26              457.38,714.61 451.40,712.74 449.27,709.85              444.95,704.00 444.22,696.89 445.90,690.00              450.15,672.49 463.78,662.91 481.00,660.85              484.05,660.48 485.83,659.96 489.00,660.18              493.24,660.49 500.17,661.62 504.00,663.35              515.28,668.44 522.62,681.74 521.91,694.00              521.49,701.18 518.92,708.08 514.91,714.00              506.43,726.51 491.12,734.82 476.00,735.00              476.00,735.00 464.00,735.00 464.00,735.00              457.63,734.92 450.00,733.44 444.00,731.30              431.31,726.77 422.38,719.37 413.00,710.00              416.45,718.61 418.48,722.14 425.04,729.00              447.12,752.09 480.89,756.67 509.00,741.68              517.22,737.30 522.54,732.61 528.99,726.00              539.21,715.52 547.82,701.01 548.00,686.00              548.03,683.08 547.52,675.53 549.02,673.37              550.86,670.60 554.08,671.23 556.03,673.37              558.56,676.28 559.73,683.23 559.90,687.00              560.40,698.36 555.54,712.65 549.25,722.00              540.78,734.61 529.66,745.24 516.00,752.03              483.72,768.07 439.65,763.33 414.09,736.96              400.55,723.00 399.41,711.49 395.00,694.00              376.38,712.22 364.65,717.30 339.00,717.00              334.19,716.94 331.61,716.41 327.00,715.09              316.16,711.99 305.87,704.62 301.47,694.00              299.78,690.28 298.51,682.61 301.47,679.36              305.33,675.40 309.55,680.64 311.01,684.00              312.74,687.99 312.51,689.09 315.53,693.00              326.23,706.88 346.73,708.55 362.00,702.13              372.76,697.60 386.07,686.61 391.09,676.00              394.47,668.85 400.44,636.78 402.40,627.00              406.57,606.15 413.89,578.30 416.14,558.00              416.14,558.00 416.14,549.00 416.14,549.00              416.14,549.00 416.14,542.00 416.14,542.00              416.14,542.00 415.57,528.00 415.57,528.00              414.47,523.96 411.45,522.21 409.00,517.00 Z            M 579.00,517.00            C 579.00,517.00 612.00,517.00 612.00,517.00              615.15,532.60 626.27,548.94 634.28,563.00              636.61,567.09 638.34,569.49 640.00,574.00              640.00,574.00 642.00,574.00 642.00,574.00              642.00,574.00 659.42,541.00 659.42,541.00              659.42,541.00 666.04,526.00 666.04,526.00              666.04,526.00 661.00,517.00 661.00,517.00              661.00,517.00 693.00,517.00 693.00,517.00              693.00,517.00 681.05,534.00 681.05,534.00              681.05,534.00 665.70,561.00 665.70,561.00              665.70,561.00 657.00,576.00 657.00,576.00              663.98,573.03 687.65,567.67 696.00,566.00              726.34,559.93 735.52,557.95 767.00,558.00              772.07,558.01 784.85,559.07 788.87,561.85              791.71,563.82 793.81,568.45 791.13,571.44              788.73,574.04 783.89,572.18 781.00,571.44              773.89,569.74 762.25,568.43 755.00,569.28              755.00,569.28 734.00,571.43 734.00,571.43              734.00,571.43 674.00,584.35 674.00,584.35              674.00,584.35 656.00,589.00 656.00,589.00              653.72,589.67 650.42,590.36 649.02,592.43              647.78,594.27 648.00,597.82 648.00,600.00              648.00,600.00 648.83,629.00 648.83,629.00              649.14,632.26 648.66,637.18 649.74,640.00              651.56,644.74 655.13,645.42 658.00,651.00              658.00,651.00 614.00,651.00 614.00,651.00              616.61,646.60 621.12,644.93 623.35,640.00              626.04,634.04 624.49,629.86 624.04,624.00              624.04,624.00 624.04,602.00 624.04,602.00              624.04,602.00 589.00,614.24 589.00,614.24              584.73,615.34 576.83,616.13 578.47,609.09              579.51,604.67 585.27,602.90 589.00,601.40              596.68,598.31 615.92,590.11 623.00,589.00              623.00,589.00 612.86,572.00 612.86,572.00              612.86,572.00 593.58,538.00 593.58,538.00              593.58,538.00 579.00,517.00 579.00,517.00 Z            M 313.00,581.00            C 309.31,572.44 304.45,563.70 305.18,554.00              305.54,549.26 307.33,543.96 309.96,540.01              318.64,527.03 342.76,524.86 353.47,536.33              358.19,541.38 359.07,546.41 359.00,553.00              358.96,556.45 358.84,558.73 357.52,562.00              355.98,565.80 352.85,570.00 349.91,572.83              345.40,577.17 338.72,581.45 333.00,584.00              333.00,584.00 337.00,593.00 337.00,593.00              340.01,591.92 344.90,589.07 347.94,589.92              351.71,590.98 352.09,594.71 351.83,598.00              350.85,610.50 348.42,607.75 354.00,621.00              362.01,612.28 376.16,595.00 377.45,583.00              378.31,574.96 372.18,570.85 368.00,565.00              377.32,559.93 383.48,560.92 388.20,571.00              390.61,576.13 391.51,581.37 390.70,587.00              388.96,599.11 379.83,610.70 372.40,620.00              369.66,623.44 362.77,630.39 363.98,635.00              365.51,640.81 376.93,651.00 382.00,654.30              384.77,656.11 390.62,658.53 389.16,662.79              387.97,666.25 382.96,666.09 380.00,665.96              371.83,665.60 364.65,660.56 359.04,654.96              356.59,652.52 352.19,646.28 349.00,645.72              346.40,645.26 335.46,651.63 332.00,652.94              319.48,657.67 303.16,657.18 292.00,649.21              277.78,639.06 274.03,616.82 282.93,602.00              288.60,592.55 302.30,583.51 313.00,581.00 Z            M 326.00,574.00            C 330.30,572.35 334.49,569.72 337.96,566.68              340.42,564.52 342.56,561.90 344.08,559.00              352.80,542.47 330.41,531.89 322.09,545.10              320.61,547.45 320.16,550.28 320.04,553.00              319.66,561.66 322.11,566.60 326.00,574.00 Z            M 198.00,586.00            C 198.00,586.00 186.00,586.00 186.00,586.00              186.00,586.00 168.00,587.00 168.00,587.00              161.15,586.92 144.57,584.73 139.06,581.01              133.15,577.02 133.62,569.36 137.28,567.76              141.06,566.10 146.44,570.58 150.00,572.12              155.16,574.35 168.47,576.21 174.00,575.82              212.34,573.09 240.81,563.53 281.00,564.00              285.30,564.05 295.44,564.32 297.83,568.23              299.22,570.51 298.99,574.37 299.00,577.00              287.71,574.25 274.49,574.72 263.00,575.83              247.28,577.35 231.81,578.47 218.00,587.06              200.42,598.00 193.01,620.08 207.33,636.99              210.78,641.06 215.11,644.02 220.00,646.12              234.51,652.36 245.36,647.53 258.00,640.07              261.82,637.81 267.14,635.89 268.53,642.04              269.80,647.67 264.18,651.02 260.00,653.22              249.23,658.87 240.93,660.14 229.00,660.00              212.09,659.80 194.83,648.28 189.52,632.00              187.43,625.59 187.92,617.76 188.00,611.00              188.12,601.12 191.82,593.55 198.00,586.00 Z            M 317.90,592.74            C 314.03,593.75 311.96,595.47 309.02,598.17              291.39,614.35 298.80,640.35 320.00,641.40              325.72,641.69 341.34,638.51 341.05,630.99              340.94,628.21 332.09,613.41 330.15,610.00              328.53,607.17 322.12,595.02 320.37,593.64              318.87,592.46 318.95,593.03 317.90,592.74 Z" fill="white" id="Selection" stroke="black" stroke-width="1"/>
</svg>